<svg class="tap-icon" viewBox="0 0 19 21" fill="none" xmlns="http://www.w3.org/2000/svg">
<path class="tap" d="M7.50006 1.00049C8.13477 1.00039 8.74577 1.24172 9.2091 
1.67553C9.67243 2.10934 9.95342 2.70314 9.99505 3.33649L10.0001 
3.50049V8.10549L15.4421 8.71049C16.3856 8.81534 17.261 9.25235 
17.9119 9.94337C18.5628 10.6344 18.9468 11.5344 18.9951 12.4825L19.0001 
12.6855V13.0005C19 15.0789 18.1911 17.0757 16.7446 18.5682C15.2981 
20.0606 13.3275 20.9315 11.2501 20.9965L11.0001 21.0005H10.3261C8.88853 
21.0005 7.47757 20.6131 6.24154 19.8791C5.00551 19.1451 3.99009 18.0917 
3.30206 16.8295L3.17106 16.5785L0.329055 10.8945C-0.0309447 10.1745 
0.236055 9.21149 1.07606 8.86649C2.11906 8.43949 3.11006 8.35949 4.13106 8.87849C4.35306 
8.99149 4.57106 9.13049 4.78506 9.29249L5.00006 9.46249V3.50049C5.00006 2.83745 5.26345 
2.20156 5.73229 1.73272C6.20113 1.26388 6.83701 1.00049 7.50006 1.00049ZM7.50006 3.00049C7.38303 
3.00045 7.2697 3.04146 7.1798 3.11638C7.08989 3.1913 7.02912 3.29537 7.00806 3.41049L7.00006 
3.50049V12.0005C6.99989 12.2075 6.93548 12.4094 6.8157 12.5783C6.69592 12.7471 6.52669 12.8746 
6.33135 12.9432C6.13601 13.0118 5.9242 13.0181 5.72515 12.9612C5.52609 12.9043 5.34961 12.787 5.22006 
12.6255L4.88806 12.2185L4.58506 11.8645C4.00506 11.2075 3.58406 10.8445 3.22506 10.6615C3.01291 10.5467 
2.77092 10.4989 2.53106 10.5245L2.39006 10.5445L4.96006 15.6845C5.43998 16.644 6.16839 17.4572 7.06941 
18.0396C7.97043 18.6219 9.01111 18.952 10.0831 18.9955L10.3261 19.0005H11.0001C12.5524 19.0005 14.0444 
18.3989 15.1625 17.322C16.2806 16.2451 16.9378 14.7768 16.9961 13.2255L17.0001 13.0005V12.6855C17.0001 
12.2208 16.8383 11.7706 16.5425 11.4122C16.2467 11.0538 15.8353 10.8096 15.3791 10.7215L15.2211 10.6975L9.77905 
10.0935C9.31702 10.0422 8.88728 9.83155 8.56371 9.49776C8.24015 9.16397 8.04296 8.7279 8.00605 8.26449L8.00006 
8.10549V3.50049C8.00006 3.36788 7.94738 3.2407 7.85361 3.14693C7.75984 3.05317 7.63266 3.00049 7.50006 3.00049Z" fill="var(--main-color)"/>

<g class="tap-sparks">
<path d="M14.6854 4.27263C14.5001 4.09767 14.255 4.00007 14.0001 3.99979H13.0001L12.8831 4.00679C12.63 
4.03689 12.3979 4.1625 12.2343 4.35795C12.0708 4.55341 11.988 4.80395 12.0029 5.05839C12.0178 5.31283 
12.1294 5.55197 12.3147 5.72694C12.5 5.90191 12.7452 5.9995 13.0001 5.99979H14.0001L14.1171 
5.99279C14.3702 5.96268 14.6022 5.83707 14.7658 5.64162C14.9294 5.44617 15.0122 5.19562 14.9973 
4.94118C14.9823 4.68674 14.8708 4.4476 14.6854 4.27263Z" fill="var(--main-color)"/>
<path d="M13.9999 0.999786C13.9999 0.734622 13.8946 0.480314 13.7071 0.292786C13.5196 0.105315 
13.2652 0 13.0001 0C12.7349 0 12.4806 0.105315 12.2931 0.292786L11.2931 1.29279C11.1976 
1.38503 11.1214 1.49538 11.069 1.61738C11.0166 1.73939 10.989 1.87061 10.9878 2.00339C10.9867 
2.13616 11.012 2.26784 11.0623 2.39074C11.1125 2.51364 11.1868 2.62529 11.2807 2.71918C11.3746 
2.81307 11.4862 2.88733 11.6091 2.93761C11.732 2.98789 11.8637 3.01319 11.9965 3.01204C12.1293 
3.01088 12.2605 2.9833 12.3825 2.93089C12.5045 2.87848 12.6148 2.8023 12.7071 2.70679L13.7071 
1.70679C13.8946 1.51926 13.9999 1.26495 13.9999 0.999786Z" fill="var(--main-color)"/>
<path d="M2.70711 5.2933C2.51957 5.10576 2.26522 5.00041 2 5.00041H1C0.734784 5.00041 0.48043 
5.10576 0.292893 5.2933C0.105357 5.48084 0 5.73519 0 6.00041C0 6.26562 0.105357 6.51998 0.292893 
6.70751C0.48043 6.89505 0.734784 7.00041 1 7.00041H2C2.26522 7.00041 2.51957 6.89505 2.70711 
6.70751C2.89464 6.51998 3 6.26562 3 6.00041C3 5.73519 2.89464 5.48084 2.70711 5.2933Z" fill="var(--main-color)"/>
<path d="M3.707 1.29341L2.707 0.293407C2.5184 0.111249 2.2658 0.0104547 
2.0036 0.0127331C1.7414 0.0150115 1.49059 0.12018 1.30518 0.305588C1.11977 
0.490997 1.0146 0.741809 1.01233 1.00401C1.01005 1.2662 1.11084 1.5188 1.293 
1.70741L2.293 2.70741C2.4816 2.88957 2.7342 2.99036 2.9964 2.98808C3.2586 2.9858 
3.50941 2.88063 3.69482 2.69523C3.88023 2.50982 3.9854 2.25901 3.98767 1.99681C3.98995 
1.73461 3.88916 1.48201 3.707 1.29341Z" fill="var(--main-color)"/>
</g>
</svg>